<?xml version="1.0" encoding="iso-8859-1"?>
<!-- Generator: Adobe Illustrator 19.0.0, SVG Export Plug-In . SVG Version: 6.00 Build 0)  -->
<svg version="1.1" id="Capa_1" xmlns="http://www.w3.org/2000/svg" xmlns:xlink="http://www.w3.org/1999/xlink" x="0px" y="0px"
	 viewBox="0 0 512 512" style="enable-background:new 0 0 512 512;" xml:space="preserve">
<path style="fill:#EF5830;" d="M256.373,448.028c-6.115,0-12.292-0.229-18.518-0.687c-18.957-1.396-34.785-4.595-48.39-9.782
	c-6.954-2.651-12.349-5.458-16.978-8.834c-5.28-3.852-8.811-7.982-10.795-12.628C160.569,413.471,160,410.746,160,408
	c0-10.054,6.961-18.7,20.691-25.697c15.303-7.799,32.413-10.747,43.952-12.285c18.47-2.463,37.439-2.715,56.381-0.75
	c18.721,1.943,33.352,5.448,46.046,11.03c6.637,2.918,11.639,5.978,15.739,9.626c4.776,4.251,7.729,8.967,8.773,14.018
	c1.222,5.907,0.751,17.33-16.137,27.469c-13.752,8.257-29.645,11.637-41.954,13.66C281.504,447.041,269.076,448.028,256.373,448.028
	z M255.855,383.96c-9.792,0-19.517,0.639-29.096,1.917c-16.488,2.199-28.818,5.593-38.802,10.681
	C180.247,400.488,176,404.551,176,408c0,0.564,0.14,1.191,0.405,1.812c0.81,1.897,2.664,3.91,5.51,5.986
	c3.449,2.516,7.66,4.68,13.25,6.811c12.132,4.625,26.48,7.496,43.865,8.775c17.902,1.32,35.354,0.612,51.869-2.102
	c10.903-1.792,24.885-4.728,36.312-11.589c2.271-1.363,9.607-6.149,8.705-10.51c-0.328-1.585-1.622-3.421-3.742-5.308
	c-2.813-2.503-6.481-4.707-11.543-6.932c-11.128-4.894-24.238-7.995-41.258-9.762C271.523,384.368,263.667,383.96,255.855,383.96z"
	/>
<path style="fill:#FFA68F;" d="M408,400h-16.518c-2.346-18.09-13.818-44.089-56.853-59.738C312.884,332.355,284.96,328,256,328
	s-56.884,4.355-78.629,12.262c-43.034,15.649-54.507,41.648-56.853,59.738H104c-4.418,0-8,3.582-8,8s3.582,8,8,8h16.518
	c2.346,18.09,13.818,44.089,56.853,59.738c19.734,7.176,44.562,11.414,70.629,12.139V504c0,4.418,3.582,8,8,8s8-3.582,8-8v-16.124
	c26.067-0.725,50.895-4.963,70.629-12.139c43.034-15.649,54.507-41.648,56.853-59.738H408c4.418,0,8-3.582,8-8S412.418,400,408,400z
	 M329.16,460.701c-18.057,6.567-40.948,10.463-65.16,11.171V464c0-4.418-3.582-8-8-8s-8,3.582-8,8v7.872
	c-24.212-0.708-47.103-4.604-65.161-11.171c-33.556-12.202-43.6-31.002-46.104-44.701H144c4.418,0,8-3.582,8-8s-3.582-8-8-8h-7.266
	c2.504-13.698,12.549-32.499,46.104-44.701C202.876,348.013,228.859,344,256,344s53.124,4.013,73.16,11.299
	c33.556,12.202,43.601,31.002,46.105,44.701H368c-4.418,0-8,3.582-8,8s3.582,8,8,8h7.266
	C372.762,429.698,362.717,448.499,329.16,460.701z"/>
<g>
	<path style="fill:#48DB87;" d="M441.035,204.602c-5.917,0-9.809-6.481-7.086-11.701c7.904-15.156,9.434-32.485,4.306-48.793
		c-5.129-16.308-16.3-29.642-31.457-37.547c-3.865-2.015-5.41-6.927-3.395-10.792c2.016-3.865,6.928-5.41,10.793-3.394
		c18.946,9.881,32.911,26.549,39.322,46.934c6.41,20.386,4.498,42.047-5.384,60.993
		C446.708,203.035,443.921,204.602,441.035,204.602z"/>
	<path style="fill:#48DB87;" d="M405.569,186.105c-5.917,0-9.81-6.481-7.086-11.701c2.964-5.684,3.537-12.182,1.613-18.297
		c-1.923-6.116-6.112-11.116-11.796-14.081c-3.918-2.043-5.438-6.875-3.395-10.792c2.043-3.917,6.875-5.437,10.793-3.394
		c9.474,4.94,16.456,13.275,19.661,23.467c3.205,10.192,2.25,21.022-2.691,30.496C411.242,184.539,408.455,186.105,405.569,186.105z
		"/>
	<path style="fill:#48DB87;" d="M476.503,223.098c-5.917,0-9.81-6.481-7.086-11.701c12.846-24.63,15.33-52.79,6.996-79.29
		c-8.333-26.5-26.487-48.168-51.118-61.014c-3.918-2.043-5.438-6.875-3.395-10.792s6.875-5.437,10.793-3.394
		c28.421,14.822,49.368,39.824,58.983,70.401c9.615,30.578,6.748,63.069-8.074,91.489
		C482.175,221.532,479.388,223.098,476.503,223.098z"/>
	<path style="fill:#48DB87;" d="M70.964,204.602c-2.886,0-5.673-1.566-7.1-4.302c-9.881-18.947-11.793-40.607-5.382-60.992
		c6.41-20.384,20.375-37.052,39.322-46.934c3.917-2.043,8.75-0.523,10.792,3.394c2.043,3.917,0.523,8.75-3.394,10.792
		c-15.158,7.905-26.33,21.239-31.458,37.547s-3.599,33.636,4.306,48.794C80.773,198.121,76.882,204.602,70.964,204.602z"/>
	<path style="fill:#48DB87;" d="M106.431,186.105c-2.886,0-5.673-1.566-7.1-4.302c-4.94-9.474-5.896-20.304-2.691-30.496
		s10.188-18.526,19.661-23.467c3.919-2.043,8.75-0.523,10.793,3.394c2.043,3.917,0.524,8.75-3.394,10.793
		c-5.685,2.965-9.874,7.965-11.797,14.08s-1.35,12.614,1.615,18.298C116.239,179.624,112.348,186.105,106.431,186.105z"/>
	<path style="fill:#48DB87;" d="M35.498,223.098c-2.886,0-5.673-1.566-7.1-4.302c-14.822-28.42-17.689-60.911-8.074-91.488
		s30.563-55.58,58.983-70.401c3.917-2.043,8.75-0.523,10.792,3.394c2.043,3.917,0.523,8.75-3.394,10.792
		c-24.631,12.845-42.785,34.514-51.119,61.014c-8.333,26.5-5.848,54.659,6.998,79.29C45.307,216.617,41.416,223.098,35.498,223.098z
		"/>
</g>
<path style="fill:#EEEFF2;" d="M366.249,155.057c-7.342-11.879-20.062-18.971-34.026-18.971H179.777
	c-13.964,0-26.684,7.092-34.026,18.971c-7.341,11.879-7.996,26.428-1.751,38.918l104.845,209.689c2.891,5.783,11.419,5.782,14.311,0
	L368,193.974C374.245,181.484,373.591,166.936,366.249,155.057z"/>
<path style="fill:#DDDFE6;" d="M171.741,193.974c-6.245-12.49-5.59-27.039,1.751-38.918c7.342-11.879,20.062-18.971,34.026-18.971
	h-27.74c-13.964,0-26.684,7.092-34.026,18.971c-7.341,11.879-7.996,26.428-1.751,38.918l104.845,209.689
	c2.891,5.783,11.419,5.782,14.311,0l6.715-13.43L171.741,193.974z"/>
<polygon style="fill:#8890A6;" points="232,136.086 240,168.086 272,168.086 280,136.086 "/>
<path style="fill:#778099;" d="M272,168.086l7.846,94.151c0.098,1.173-0.326,2.329-1.158,3.161l-19.86,19.86
	c-1.562,1.562-4.095,1.562-5.657,0l-19.86-19.86c-0.832-0.832-1.255-1.988-1.158-3.161L240,168.086H272z"/>
<circle style="fill:#FFF8DD;" cx="256" cy="64" r="64"/>
<path style="fill:#FFF3C7;" d="M280,120c-35.346,0-64-28.654-64-64c0-23.747,12.944-44.458,32.151-55.504
	C216.511,4.368,192,31.313,192,64c0,35.346,28.654,64,64,64c11.599,0,22.467-3.101,31.848-8.496
	C285.275,119.819,282.659,120,280,120z"/>
<path style="fill:#FFDE5E;" d="M255.118,0h-81.345c-2.793,0-4.726,2.789-3.745,5.404L192,64c0,20.207,9.374,38.214,24,49.943V52
	c0-2.209,1.791-4,4-4h72c2.209,0,4,1.791,4,4v61.943c14.741-11.821,24.147-30.02,23.998-50.42C319.741,28.218,290.423,0,255.118,0z"
	/>
<path style="fill:#FFCF1A;" d="M216.236,50.694C218.031,28.843,230.791,10.105,249.015,0h-75.243c-2.793,0-4.726,2.79-3.745,5.405
	L192,64c0,20.207,9.374,38.214,24,49.943V56v-4C216,51.54,216.094,51.105,216.236,50.694z"/>
<g>
</g>
<g>
</g>
<g>
</g>
<g>
</g>
<g>
</g>
<g>
</g>
<g>
</g>
<g>
</g>
<g>
</g>
<g>
</g>
<g>
</g>
<g>
</g>
<g>
</g>
<g>
</g>
<g>
</g>
</svg>
